<svg height="511pt" viewBox="0 -2 511.99953 511" width="511pt" xmlns="http://www.w3.org/2000/svg"><path d="m511.941406 394.222656c-.535156-4.910156-4.585937-8.695312-9.519531-8.910156-.140625-.007812-14.371094-.703125-29.832031-7.5-19.671875-8.648438-32.28125-22.886719-37.476563-42.328125v-.003906l-16.707031-62.863281 15.117188-26.609376c14.472656-25.519531 22.449218-55.019531 23.070312-85.3125 0-.03125.003906-.058593.003906-.089843.179688-16.050781-1.8125-32.03125-5.925781-47.5l-19.914063-74.941407c-.679687-2.5625-2.351562-4.75-4.644531-6.082031-2.296875-1.332031-5.023437-1.695312-7.589843-1.015625l-139.46875 37.054688c-2.5625.683594-4.75 2.355468-6.082032 4.648437-1.332031 2.296875-1.695312 5.023438-1.015625 7.585938l15.140625 56.964843-125.570312-29.9375c-7.523438-1.792968-15.292969-.550781-21.878906 3.5-6.554688 4.03125-11.15625 10.363282-12.96875 17.835938-.007813.039062-.019532.070312-.03125.105469l-8.617188 36.152343-37.304688-8.894531c-27.378906-6.527343-54.957031 10.4375-61.484374 37.8125l-17.84375 74.839844c-6.527344 27.378906 10.433593 54.960937 37.808593 61.488281l37.296875 8.890625c-5.792968 23.949219-13.011718 37.910157-26.003906 58.375-6.410156-1.007812-12.890625.296875-18.464844 3.765625-6.183594 3.855469-10.472656 9.890625-12.082031 17-3.25 14.382813 5.773437 28.863282 20.117187 32.285156l234.839844 55.992188c2.105469.5 4.226563.75 6.332032.75 4.996093 0 9.902343-1.394531 14.253906-4.101562 6.183594-3.855469 10.472656-9.890626 12.082031-17 3.121094-13.8125-5.078125-27.707032-18.4375-31.820313-.960937-9.828125-1.53125-18.015625-1.53125-26.070313 0-12.746093 1.457031-24.28125 4.863281-38.570312l16.238282-68.117188c21.5-2.082031 38.363281-20.25 38.363281-42.285156v-35.65625c7.96875 6.902344 16.550781 13.089844 25.671875 18.496094l26.328125 15.601562 16.683593 62.773438v.003906c5.175782 19.484375 1.308594 38.136719-11.496093 55.433594-10.046875 13.578125-22.054688 21.242188-22.152344 21.304688-4.199219 2.621093-5.851563 7.917968-3.882813 12.460937 1.617188 3.726563 5.269532 6.027344 9.175782 6.027344.851562 0 1.714844-.109375 2.570312-.335938l114.605469-30.457031c4.777344-1.269531 7.894531-5.832031 7.363281-10.746094zm-218.085937-309.335937 120.140625-31.917969 17.34375 65.277344c2.804687 10.535156 4.484375 21.347656 5.046875 32.246094h-102.058594c-2.871094-1.933594-6.117187-3.367188-9.488281-4.171876l-15.644532-3.730468zm-273.003907 188.488281 17.847657-74.84375c1.921875-8.0625 6.871093-14.898438 13.929687-19.242188 7.0625-4.339843 15.394532-5.671874 23.460938-3.75l37.300781 8.894532-32.242187 135.226562-37.300782-8.894531c-16.648437-3.96875-26.964844-20.742187-22.996094-37.390625zm267.21875 208.394531c-.417968 1.851563-1.539062 3.425781-3.152343 4.429688-1.613281 1.007812-3.519531 1.316406-5.367188.875l-234.84375-55.992188c-3.738281-.890625-6.09375-4.667969-5.246093-8.417969.421874-1.855468 1.539062-3.429687 3.152343-4.433593 1.136719-.707031 2.414063-1.070313 3.71875-1.070313.546875 0 1.101563.066406 1.648438.195313l9.722656 2.320312 107.5 25.636719 95.136719 22.675781 22.484375 5.359375c3.742187.890625 6.09375 4.667969 5.246093 8.421875zm-15.050781-96.691406c-3.742187 15.679687-5.410156 29.007813-5.410156 43.210937 0 6.738282.371094 13.617188 1 21.109376l-.460937-.109376-197.054688-46.984374c11.222656-18.179688 19.019531-33.992188 25.074219-59.402344l2.09375-8.777344c.007812-.03125.019531-.0625.027343-.097656.007813-.03125.007813-.058594.015626-.085938l36.847656-154.542968c.003906-.015626.011718-.035157.015625-.054688.007812-.019531.007812-.039062.011719-.058594l3.269531-13.710937c3.601562 3.140625 7.824219 5.574219 12.34375 7.109375 2.21875.753906 4.492187 1.292968 6.8125 1.621094 2.378906.339843 4.769531.226562 7.148437.484374 8.605469.949219 15.324219 8.257813 15.324219 17.113282v34.238281c0 17.355469 13.351563 31.425781 30.394531 32.035156 8.660156.3125 16.828125-2.828125 23.039063-8.824219 6.21875-6 9.640625-14.058593 9.640625-22.695312 0-3.390625-.496094-7.179688 1.28125-10.226562 3.210937-5.503907 11.09375-6.285157 15.304687-1.496094 3.125 3.546875 2.351563 8.828125 2.351563 13.214844v20.792968 21.617188c0 4.109375-.1875 8.292968.164062 12.394531.078125.914063.210938 1.824219.3125 2.738281.082032.714844.0625 1.515625.390625 2.175782 2.875 14.035156 12.667969 25.664062 25.863281 30.921874zm54.058594-105.761719c0 12.398438-10.089844 22.488282-22.492187 22.488282-.945313 0-1.875-.066407-2.789063-.179688-11.097656-1.367188-19.703125-11.136719-19.703125-22.308594v-58.140625c0-1.289062-.089844-2.558593-.253906-3.804687-.023438-.210938-.046875-.425782-.078125-.636719-.019531-.121094-.042969-.242187-.0625-.363281-.988281-6.054688-3.824219-11.628906-8.230469-16.023438-4.804688-4.816406-10.984375-7.757812-17.660156-8.46875-1.054688-.113281-2.125-.175781-3.183594-.175781-4.570312 0-8.902344 1.046875-12.765625 2.910156-9.878906 4.765625-16.710937 14.878907-16.710937 26.554688v5.488281c0 3.164062-1.253907 6.113281-3.53125 8.308594-.566407.546875-1.175782 1.027344-1.824219 1.441406-1.578125 1.003906-3.371094 1.59375-5.257813 1.742188-.449218.035156-.898437.050781-1.355468.035156-6.117188-.21875-11.097657-5.617188-11.097657-12.042969v-34.238281c0-9.941406-3.871093-19.289063-10.902343-26.320313-6.5625-6.558593-15.140626-10.367187-24.335938-10.847656-6.886719-.382813-12.945312-2.109375-16.746094-8.429687-3.242187-5.390626-4.085937-14.625 2.027344-18.386719 2.035156-1.25 4.4375-1.636719 6.761719-1.082031l30.871093 7.359374 110.917969 26.449219c.023438.003907.046875.015625.070313.019531l21.453125 5.113282c3.980469.980468 6.875 4.585937 6.875 8.703125v104.835937zm20.003906-63.523437v-41.308594c0-1.332031-.09375-2.675781-.28125-3.992187h89.273438c-1.464844 17.878906-5.859375 35.515624-13.082031 51.941406-2.054688 4.675781-4.34375 9.257812-6.863282 13.699218l-12.101562 21.308594-21.082032-12.488281c-8.347656-4.953125-16.1875-10.636719-23.445312-16.996094-4.351562-3.8125-8.5-7.875-12.417969-12.164062zm74.347657 190.578125c6.832031-9.578125 11.566406-19.6875 14.171874-30.117188 7.433594 7.761719 16.566407 14.183594 27.25 19.109375zm0 0"/><path d="m197.144531 316.195312c-5.375-1.289062-10.769531 2.015626-12.0625 7.386719l-12.710937 52.875c-1.292969 5.367188 2.015625 10.769531 7.386718 12.058594.785157.191406 1.570313.28125 2.34375.28125 4.515626 0 8.613282-3.082031 9.714844-7.664063l12.714844-52.875c1.289062-5.367187-2.019531-10.769531-7.386719-12.0625zm0 0"/><path d="m163.261719 238.46875c-5.371094-1.277344-10.765625 2.035156-12.046875 7.40625l-21.148438 88.699219c-.039062.167969-4.027344 16.933593-9.097656 28.855469-2.164062 5.082031.203125 10.953124 5.285156 13.117187 1.277344.542969 2.605469.800781 3.910156.800781 3.890626 0 7.585938-2.28125 9.207032-6.085937 5.738281-13.476563 9.984375-31.339844 10.15625-32.070313l21.140625-88.675781c1.28125-5.375-2.035157-10.765625-7.40625-12.046875zm0 0"/><path d="m251.636719 304.457031c-5.367188-1.277343-10.761719 2.035157-12.046875 7.40625l-11.003906 46.15625c-.179688.75-4.449219 18.609375-5.410157 33.222657-.363281 5.511718 3.808594 10.273437 9.320313 10.636718.226562.015625.445312.023438.667968.023438 5.222657 0 9.621094-4.058594 9.96875-9.34375.847657-12.890625 4.859376-29.691406 4.90625-29.878906l11.007813-46.175782c1.28125-5.371094-2.035156-10.765625-7.410156-12.046875zm0 0"/><path d="m213.144531 283.359375c-1.605469-3.917969-5.667969-6.4375-9.890625-6.144531-4.054687.28125-7.613281 3.03125-8.859375 6.90625-1.3125 4.066406.183594 8.644531 3.644531 11.152344 3.351563 2.425781 7.980469 2.523437 11.421876.226562 3.921874-2.613281 5.492187-7.792969 3.683593-12.140625zm0 0"/><path d="m192.996094 33.230469 43.480468 27.894531c1.671876 1.074219 3.542969 1.585938 5.390626 1.585938 3.292968 0 6.515624-1.625 8.425781-4.601563 2.984375-4.648437 1.632812-10.835937-3.015625-13.816406l-43.480469-27.898438c-4.644531-2.984375-10.835937-1.632812-13.816406 3.015625-2.980469 4.648438-1.632813 10.835938 3.015625 13.820313zm0 0"/><path d="m263.964844 40.378906c1.316406 4.3125 5.277344 7.089844 9.566406 7.089844.964844 0 1.945312-.140625 2.914062-.433594 5.285157-1.609375 8.261719-7.195312 6.65625-12.480468l-8.207031-26.964844c-1.609375-5.28125-7.191406-8.261719-12.480469-6.65625-5.285156 1.609375-8.261718 7.195312-6.65625 12.480468zm0 0"/><path d="m238.625 78.484375-26.261719 3.148437c-5.484375.65625-9.398437 5.636719-8.742187 11.117188.609375 5.082031 4.925781 8.8125 9.917968 8.8125.398438 0 .796876-.023438 1.203126-.070312l26.261718-3.148438c5.484375-.660156 9.398438-5.636719 8.738282-11.121094-.65625-5.484375-5.632813-9.398437-11.117188-8.738281zm0 0"/></svg>